#!OML:ASF G:\JayActor3\Patient Classification 1\Patient 1\Session 6\male.ASF
:FULLY-SPECIFIED
:DEGREES
2843
root 3.2003 16.3418 -24.3955 160.006 -80.4016 -161.889
lowerback 1.65443 -1.89687 4.70797
upperback -0.0314882 -2.51355 4.33167
thorax -0.964084 -1.31833 1.88067
lowerneck -3.96583 -5.54653 -2.2217
upperneck 25.4798 -7.40999 -5.33839
head 8.4375 -4.62448 -2.08576
rclavicle 4.22417e-014 0
rhumerus -35.8637 28.5572 -70.337
rradius 70.5541
rwrist -33.6236
rhand -30.2892 4.10219
rfingers 7.12502
rthumb -3.59673 -25.8472
lclavicle 4.22417e-014 0
lhumerus -42.2911 -7.87852 88.7302
lradius 36.0757
lwrist 24.0057
lhand -3.95192 9.60751
lfingers 7.12502
lthumb 21.8001 38.3997
rfemur -7.76635 -5.89258 21.4968
rtibia 34.7532
rfoot -33.0006 -19.414
rtoes 13.0186
lfemur 1.32729 -3.92777 -10.3549
ltibia 17.6795
lfoot -24.1315 27.8617
ltoes 10.1421
2844
root 3.2085 16.3431 -24.3988 160.124 -80.4995 -162.009
lowerback 1.68854 -1.91312 4.72307
upperback 0.00692499 -2.53602 4.36339
thorax -0.942864 -1.32973 1.906
lowerneck -3.93523 -5.61578 -2.25767
upperneck 25.4235 -7.51566 -5.27887
head 8.41514 -4.66923 -2.06483
rclavicle -1.85615e-014 1.74931e-014
rhumerus -35.2319 28.2362 -70.057
rradius 70.0968
rwrist -33.6298
rhand -30.49 4.14525
rfingers 7.12502
rthumb -3.79066 -25.8008
lclavicle -1.85615e-014 1.74931e-014
lhumerus -42.2583 -7.91216 88.8011
lradius 36.0508
lwrist 24
lhand -3.93348 9.62583
lfingers 7.12502
lthumb 21.8178 38.416
rfemur -7.79043 -5.89634 21.4699
rtibia 34.7631
rfoot -33.0551 -19.4478
rtoes 13.0828
lfemur 1.29514 -3.89743 -10.3768
ltibia 17.6233
lfoot -23.9847 27.8206
ltoes 10.0889
2845
root 3.21693 16.3444 -24.4019 160.181 -80.6103 -162.067
lowerback 1.73 -1.93522 4.74614
upperback 0.0419323 -2.56541 4.39568
thorax -0.929582 -1.34477 1.9281
lowerneck -3.9006 -5.68233 -2.28482
upperneck 25.3581 -7.61725 -5.22356
head 8.38852 -4.71144 -2.04583
rclavicle -2.02015e-014 1.59028e-014
rhumerus -34.6012 27.9077 -69.7931
rradius 69.6334
rwrist -33.6191
rhand -30.6899 4.19502
rfingers 7.12502
rthumb -3.98373 -25.7475
lclavicle -2.02015e-014 1.59028e-014
lhumerus -42.2246 -7.95515 88.878
lradius 36.0167
lwrist 23.985
lhand -3.91344 9.65851
lfingers 7.12502
lthumb 21.8371 38.4464
rfemur -7.81035 -5.91038 21.448
rtibia 34.7692
rfoot -33.1166 -19.4763
rtoes 13.1685
lfemur 1.25522 -3.84975 -10.3868
ltibia 17.5707
lfoot -23.8102 27.7564
ltoes 10.017
2846
root 3.22541 16.3457 -24.4047 160.198 -80.7345 -162.086
lowerback 1.78097 -1.96216 4.776
upperback 0.0697817 -2.59987 4.42704
thorax -0.929338 -1.36257 1.94624
lowerneck -3.8558 -5.74804 -2.31496
upperneck 25.2875 -7.71901 -5.16241
head 8.35879 -4.75343 -2.02379
rclavicle -1.19271e-014 -1.59028e-015
rhumerus -33.9831 27.5673 -69.5468
rradius 69.1658
rwrist -33.586
rhand -30.89 4.25668
rfingers 7.12502
rthumb -4.17687 -25.6821
lclavicle -1.19271e-014 -1.59028e-015
lhumerus -42.1963 -8.01694 88.9677
lradius 35.9726
lwrist 23.9653
lhand -3.89589 9.70149
lfingers 7.12502
lthumb 21.8539 38.4874
rfemur -7.82511 -5.9436 21.4251
rtibia 34.77
rfoot -33.1712 -19.5059
rtoes 13.2401
lfemur 1.20457 -3.77558 -10.3886
ltibia 17.5266
lfoot -23.5878 27.6753
ltoes 9.87973
2847
root 3.23417 16.347 -24.4074 160.158 -80.868 -162.044
lowerback 1.83835 -1.99238 4.81395
upperback 0.0904773 -2.6376 4.45977
thorax -0.940348 -1.38226 1.96194
lowerneck -3.80223 -5.81144 -2.34767
upperneck 25.2121 -7.81903 -5.09435
head 8.32643 -4.79415 -1.99836
rclavicle 5.05783e-014 -4.29375e-014
rhumerus -33.3759 27.2168 -69.3157
rradius 68.691
rwrist -33.5256
rhand -31.1126 4.35339
rfingers 7.12502
rthumb -4.39189 -25.5811
lclavicle 5.05783e-014 -4.29375e-014
lhumerus -42.1746 -8.10116 89.0729
lradius 35.9199
lwrist 23.9378
lhand -3.86666 9.76194
lfingers 7.12502
lthumb 21.882 38.5446
rfemur -7.84012 -5.98904 21.4081
rtibia 34.7661
rfoot -33.2253 -19.533
rtoes 13.3264
lfemur 1.13908 -3.68037 -10.3781
ltibia 17.492
lfoot -23.3345 27.5753
ltoes 9.70689
2848
root 3.24313 16.3485 -24.4099 160.057 -81.0169 -161.938
lowerback 1.90206 -2.02818 4.85843
upperback 0.105254 -2.6817 4.49297
thorax -0.961291 -1.40533 1.9752
lowerneck -3.74314 -5.87405 -2.38332
upperneck 25.1343 -7.91952 -5.0184
head 8.2929 -4.83464 -1.96958
rclavicle 6.70401e-014 -4.77083e-015
rhumerus -32.7756 26.856 -69.1003
rradius 68.2054
rwrist -33.4345
rhand -31.3466 4.47648
rfingers 7.12502
rthumb -4.61781 -25.4532
lclavicle 6.70401e-014 -4.77083e-015
lhumerus -42.1544 -8.20757 89.1933
lradius 35.8554
lwrist 23.9079
lhand -3.83516 9.81986
lfingers 7.12502
lthumb 21.9122 38.599
rfemur -7.85433 -6.04529 21.3954
rtibia 34.7587
rfoot -33.2852 -19.563
rtoes 13.4087
lfemur 1.06127 -3.56865 -10.358
ltibia 17.4625
lfoot -23.0508 27.4548
ltoes 9.50445
2849
root 3.25224 16.3502 -24.4123 159.965 -81.166 -161.837
lowerback 1.9703 -2.06362 4.90114
upperback 0.1129 -2.72437 4.52557
thorax -0.992082 -1.42782 1.98927
lowerneck -3.67063 -5.93486 -2.41737
upperneck 25.0497 -8.01873 -4.94025
head 8.25483 -4.87421 -1.93938
rclavicle -2.01269e-014 8.5875e-014
rhumerus -32.1907 26.4921 -68.9021
rradius 67.7106
rwrist -33.3169
rhand -31.5863 4.61661
rfingers 7.12502
rthumb -4.84924 -25.3079
lclavicle -2.01269e-014 8.5875e-014
lhumerus -42.1417 -8.33769 89.3287
lradius 35.7837
lwrist 23.8758
lhand -3.76772 9.89301
lfingers 7.12502
lthumb 21.977 38.6645
rfemur -7.87433 -6.09949 21.3819
rtibia 34.7496
rfoot -33.3433 -19.5974
rtoes 13.4957
lfemur 0.976661 -3.45081 -10.3391
ltibia 17.4342
lfoot -22.7614 27.332
ltoes 9.29398
2850
root 3.26175 16.3522 -24.4151 159.911 -81.3056 -161.764
lowerback 2.0375 -2.09543 4.93717
upperback 0.113975 -2.76187 4.55889
thorax -1.02872 -1.44781 2.00788
lowerneck -3.596 -5.99405 -2.44589
upperneck 24.9665 -8.11577 -4.86545
head 8.21658 -4.91278 -1.91098
rclavicle -3.08862e-014 5.08889e-014
rhumerus -31.6086 26.1286 -68.719
rradius 67.2009
rwrist -33.1822
rhand -31.8193 4.76466
rfingers 7.12502
rthumb -5.07429 -25.1546
lclavicle -3.08862e-014 5.08889e-014
lhumerus -42.1385 -8.48709 89.4769
lradius 35.7102
lwrist 23.833
lhand -3.67155 9.96746
lfingers 7.12502
lthumb 22.0693 38.7281
rfemur -7.91011 -6.13451 21.3714
rtibia 34.7405
rfoot -33.4065 -19.6367
rtoes 13.5855
lfemur 0.883418 -3.33152 -10.3224
ltibia 17.402
lfoot -22.4831 27.2147
ltoes 9.10105
2851
root 3.27152 16.3546 -24.418 159.882 -81.4437 -161.707
lowerback 2.10227 -2.12733 4.9668
upperback 0.111271 -2.79944 4.59227
thorax -1.06758 -1.46783 2.03019
lowerneck -3.51796 -6.0492 -2.46681
upperneck 24.8788 -8.20701 -4.7946
head 8.17586 -4.94832 -1.88429
rclavicle -1.1076e-014 -4.77083e-014
rhumerus -31.0238 25.7695 -68.5513
rradius 66.6738
rwrist -33.0418
rhand -32.0286 4.9146
rfingers 7.12502
rthumb -5.27639 -24.9997
lclavicle -1.1076e-014 -4.77083e-014
lhumerus -42.1393 -8.64746 89.6322
lradius 35.636
lwrist 23.778
lhand -3.55224 10.0382
lfingers 7.12502
lthumb 22.1839 38.7853
rfemur -7.95691 -6.1542 21.363
rtibia 34.7311
rfoot -33.4764 -19.6857
rtoes 13.676
lfemur 0.782963 -3.2069 -10.3074
ltibia 17.3649
lfoot -22.2091 27.0926
ltoes 8.92383
2852
root 3.28152 16.3574 -24.4212 159.93 -81.5779 -161.72
lowerback 2.16395 -2.15688 4.98358
upperback 0.103376 -2.83381 4.62361
thorax -1.10956 -1.48618 2.05752
lowerneck -3.44226 -6.1026 -2.4826
upperneck 24.7968 -8.29545 -4.72878
head 8.13719 -4.98285 -1.86021
rclavicle 2.90567e-014 -1.90833e-014
rhumerus -30.4423 25.4115 -68.4006
rradius 66.1343
rwrist -32.9073
rhand -32.2071 5.07188
rfingers 7.12502
rthumb -5.44865 -24.8381
lclavicle 2.90567e-014 -1.90833e-014
lhumerus -42.1509 -8.81818 89.793
lradius 35.5706
lwrist 23.7154
lhand -3.41458 10.1035
lfingers 7.12502
lthumb 22.316 38.8348
rfemur -8.0153 -6.1598 21.3495
rtibia 34.7214
rfoot -33.548 -19.742
rtoes 13.7735
lfemur 0.675386 -3.07245 -10.3013
ltibia 17.3235
lfoot -21.9332 26.9716
ltoes 8.74382
2853
root 3.29202 16.3605 -24.4246 159.931 -81.7203 -161.676
lowerback 2.22338 -2.19052 5.00376
upperback 0.0921804 -2.8735 4.65563
thorax -1.15379 -1.50727 2.08394
lowerneck -3.37032 -6.15448 -2.49586
upperneck 24.7163 -8.38133 -4.66469
head 8.09963 -5.0162 -1.83711
rclavicle -1.84513e-014 2.54444e-014
rhumerus -29.8522 25.0554 -68.2653
rradius 65.5782
rwrist -32.7865
rhand -32.3553 5.23932
rfingers 7.12502
rthumb -5.59173 -24.6669
lclavicle -1.84513e-014 2.54444e-014
lhumerus -42.1695 -8.99385 89.9535
lradius 35.519
lwrist 23.6504
lhand -3.28042 10.1499
lfingers 7.12502
lthumb 22.4448 38.8658
rfemur -8.08266 -6.15119 21.3477
rtibia 34.7112
rfoot -33.6393 -19.8071
rtoes 13.8896
lfemur 0.55463 -2.93377 -10.2871
ltibia 17.2789
lfoot -21.6459 26.8415
ltoes 8.56429
